<?xml version="1.0" encoding="utf-8"?>
<!-- Generator: Adobe Illustrator 23.0.2, SVG Export Plug-In . SVG Version: 6.00 Build 0)  -->
<svg version="1.1" id="Calque_1" xmlns="http://www.w3.org/2000/svg" xmlns:xlink="http://www.w3.org/1999/xlink" x="0px" y="0px"
	 viewBox="0 0 150.7 45.1" style="enable-background:new 0 0 150.7 45.1;" xml:space="preserve">
<style type="text/css">
	.st0{fill:#09A766;}
	.st1{fill:#010000;}
	.st2{fill:#FFFFFF;}
</style>
<path class="st0" d="M141.3,12.5h-8.9l0-9.9c0-1.4-1.3-2.6-2.9-2.6h-12.4c-1.6,0-2.9,1.1-2.9,2.6l0,9.9h-8.9c-5.1,0-9.2,4.2-9.2,9.2
	v1.6c0,5.1,4.2,9.2,9.2,9.2h8.9l0,9.9c0,1.4,1.3,2.6,2.9,2.6h12.4c1.6,0,2.9-1.1,2.9-2.6l0-9.9h8.9c5.1,0,9.2-4.2,9.2-9.2v-1.6
	C150.5,16.7,146.4,12.5,141.3,12.5z"/>
<g>
	<path class="st1" d="M0.1,13.4h7.7c1.9,0,3.5,0.5,4.5,1.4s1.6,2.2,1.6,3.9c0,1.6-0.5,2.9-1.7,3.9C11.2,23.5,9.7,24,7.8,24h-5v8H0.1
		V13.4z M7.5,21.8c1.3,0,2.2-0.3,2.9-0.8c0.6-0.5,1-1.3,1-2.3c0-1-0.3-1.8-1-2.3c-0.7-0.5-1.6-0.8-2.9-0.8H2.8v6.3H7.5z"/>
	<path class="st1" d="M28.7,23.8v8.2H26v-8c0-1.1-0.2-2-0.7-2.5c-0.4-0.5-1.1-0.8-2.1-0.8c-1.1,0-2,0.3-2.7,1c-0.7,0.7-1,1.6-1,2.8
		v7.5H17V12.8h2.6v8.1c0.4-0.8,1-1.3,1.8-1.7c0.8-0.4,1.6-0.6,2.6-0.6C27.1,18.5,28.7,20.3,28.7,23.8z"/>
	<path class="st1" d="M44.4,18.8v13.1h-2.6v-2.2c-0.4,0.8-0.9,1.4-1.7,1.8c-0.8,0.4-1.6,0.6-2.6,0.6c-1.2,0-2.2-0.3-3.1-0.8
		c-0.9-0.6-1.6-1.3-2-2.4c-0.5-1-0.7-2.2-0.7-3.5c0-1.4,0.2-2.5,0.7-3.6c0.5-1,1.2-1.8,2.1-2.4c0.9-0.6,1.9-0.9,3-0.9
		c1,0,1.9,0.2,2.6,0.6c0.7,0.4,1.3,1,1.7,1.8v-2.1H44.4z M40.8,28.8c0.7-0.8,1-2,1-3.5c0-1.5-0.3-2.7-1-3.5s-1.6-1.2-2.8-1.2
		c-1.2,0-2.1,0.4-2.8,1.3s-1,2-1,3.5c0,1.5,0.3,2.6,1,3.4c0.7,0.8,1.6,1.2,2.8,1.2C39.3,30,40.2,29.6,40.8,28.8z"/>
	<path class="st1" d="M56,18.7L56,21.1c-0.5-0.2-1-0.3-1.5-0.3c-1.2,0-2.1,0.4-2.7,1.1c-0.6,0.7-0.9,1.6-0.9,2.7v7.3h-2.6v-9.4
		c0-1.4-0.1-2.6-0.2-3.7h2.4l0.2,2.4c0.3-0.9,0.9-1.5,1.6-2c0.7-0.5,1.5-0.7,2.4-0.7C55.2,18.5,55.6,18.6,56,18.7z"/>
	<path class="st1" d="M77.3,23.8v8.2h-2.6v-8c0-1.1-0.2-2-0.6-2.5c-0.4-0.5-1-0.8-1.9-0.8c-1,0-1.8,0.3-2.4,1
		c-0.6,0.7-0.9,1.6-0.9,2.8v7.4h-2.6v-8c0-1.1-0.2-2-0.6-2.5c-0.4-0.5-1-0.8-1.9-0.8c-1,0-1.8,0.3-2.4,1c-0.6,0.7-0.9,1.6-0.9,2.8
		v7.4H58v-9.4c0-1.4-0.1-2.6-0.2-3.7h2.4l0.2,2.2c0.4-0.8,0.9-1.4,1.6-1.8c0.7-0.4,1.5-0.7,2.5-0.7c2,0,3.4,0.8,4,2.5
		c0.4-0.8,1-1.4,1.8-1.8c0.8-0.5,1.6-0.7,2.6-0.7C75.9,18.5,77.3,20.3,77.3,23.8z"/>
	<path class="st1" d="M93.1,18.8v13.1h-2.6v-2.2c-0.4,0.8-0.9,1.4-1.7,1.8c-0.8,0.4-1.6,0.6-2.6,0.6c-1.2,0-2.2-0.3-3.1-0.8
		c-0.9-0.6-1.6-1.3-2-2.4s-0.7-2.2-0.7-3.5c0-1.4,0.2-2.5,0.7-3.6s1.2-1.8,2.1-2.4c0.9-0.6,1.9-0.9,3-0.9c1,0,1.9,0.2,2.6,0.6
		c0.7,0.4,1.3,1,1.7,1.8v-2.1H93.1z M89.5,28.8c0.7-0.8,1-2,1-3.5c0-1.5-0.3-2.7-1-3.5s-1.6-1.2-2.8-1.2c-1.2,0-2.1,0.4-2.8,1.3
		s-1,2-1,3.5c0,1.5,0.3,2.6,1,3.4c0.7,0.8,1.6,1.2,2.8,1.2C88,30,88.9,29.6,89.5,28.8z"/>
</g>
<g>
	<path class="st2" d="M112.4,22v8.2c-0.8,0.4-1.7,0.7-2.8,0.9c-1.1,0.2-2.2,0.3-3.4,0.3c-1.8,0-3.3-0.4-4.6-1.1s-2.3-1.7-3-3
		c-0.7-1.3-1-2.9-1-4.7c0-1.8,0.3-3.3,1-4.7c0.7-1.3,1.7-2.3,2.9-3c1.3-0.7,2.8-1.1,4.5-1.1c1.2,0,2.3,0.2,3.4,0.5
		c1,0.4,1.9,0.8,2.6,1.5l-1.1,2.3c-0.8-0.6-1.6-1.1-2.4-1.3c-0.8-0.3-1.6-0.4-2.5-0.4c-1.8,0-3.1,0.5-4,1.6
		c-0.9,1.1-1.4,2.6-1.4,4.6c0,2.1,0.5,3.7,1.4,4.7c0.9,1.1,2.3,1.6,4.2,1.6c1.1,0,2.2-0.2,3.3-0.5v-4.3h-3.7V22H112.4z"/>
	<path class="st2" d="M115.8,14.1h6.3c2.8,0,5,0.7,6.5,2.2c1.5,1.5,2.3,3.6,2.3,6.3c0,2.7-0.8,4.8-2.3,6.3c-1.5,1.5-3.7,2.2-6.5,2.2
		h-6.3V14.1z M121.9,28.7c3.9,0,5.9-2,5.9-6c0-4-2-6-5.9-6h-3v12H121.9z"/>
	<path class="st2" d="M134.1,14.1h6.3c2.8,0,5,0.7,6.5,2.2c1.5,1.5,2.3,3.6,2.3,6.3c0,2.7-0.8,4.8-2.3,6.3c-1.5,1.5-3.7,2.2-6.5,2.2
		h-6.3V14.1z M140.2,28.7c3.9,0,5.9-2,5.9-6c0-4-2-6-5.9-6h-3v12H140.2z"/>
</g>
</svg>
